<svg id="Layer_1" data-name="Layer 1" xmlns="http://www.w3.org/2000/svg" viewBox="0 0 615.51 638"><defs><style>.cls-1{fill:#fff;}.cls-1,.cls-2,.cls-3,.cls-4{fill-rule:evenodd;}.cls-3{fill:#ff6601;}.cls-4{fill:#018837;}</style></defs><title>BJP Logo Vector</title><polygon class="cls-1" points="129.6 53.73 128.31 52.05 115.45 35.75 132.65 27.11 133.59 26.66 134.59 26.21 135.59 25.8 136.59 25.41 137.63 25.03 138.64 24.68 139.74 24.33 141.01 23.97 142.38 23.63 143.77 23.35 145.15 23.13 146.55 22.96 147.97 22.84 149.36 22.77 150.7 22.75 153 22.77 155.26 22.84 157.54 22.95 159.8 23.11 162.05 23.32 164.29 23.57 166.56 23.87 168.79 24.22 171.01 24.61 173.26 25.05 175.48 25.53 177.69 26.06 179.91 26.63 182.13 27.25 184.33 27.91 186.52 28.62 188.7 29.37 190.88 30.17 193.06 31.01 195.22 31.89 197.38 32.82 199.53 33.79 201.67 34.8 203.8 35.86 205.92 36.96 208.04 38.1 210.15 39.28 212.25 40.51 214.34 41.77 216.43 43.09 218.51 44.44 220.57 45.83 222.62 47.25 224.66 48.72 226.68 50.22 228.67 51.75 230.64 53.31 232.59 54.91 234.52 56.53 236.41 58.19 238.29 59.88 240.16 61.61 241.99 63.38 243.79 65.16 245.58 66.98 247.34 68.83 249.09 70.72 250.79 72.63 252.49 74.57 254.16 76.55 255.81 78.56 257.43 80.59 259.03 82.66 260.6 84.77 260.66 84.85 261.5 83.28 262.98 80.58 264.49 77.85 266.04 75.09 267.62 72.3 269.25 69.48 270.91 66.62 272.62 63.72 274.36 60.8 276.14 57.84 277.96 54.85 279.83 51.83 281.73 48.77 283.67 45.68 285.64 42.56 287.66 39.4 289.72 36.21 291.82 32.99 293.95 29.73 296.12 26.44 298.34 23.11 300.59 19.75 313.93 0 327.61 17.03 329 18.81 330.37 20.63 331.75 22.49 333.13 24.41 334.51 26.39 335.89 28.41 337.26 30.48 338.64 32.59 340.03 34.76 341.43 36.99 342.82 39.26 344.21 41.58 345.62 43.96 347.02 46.4 348.43 48.87 349.84 51.39 351.26 53.98 352.68 56.62 354.11 59.31 355.54 62.05 356.98 64.84 358.42 67.69 359.87 70.59 361.32 73.53 361.33 73.55 362.06 72.69 364.87 69.5 367.74 66.4 370.66 63.38 373.63 60.43 376.65 57.57 379.73 54.79 382.86 52.08 386.04 49.47 389.26 46.93 392.54 44.48 395.86 42.11 399.21 39.85 402.59 37.7 406 35.65 409.43 33.71 412.89 31.88 416.37 30.16 419.88 28.55 423.41 27.05 426.98 25.66 430.57 24.39 434.18 23.23 437.81 22.18 441.46 21.26 445.13 20.44 450.01 19.52 452.85 19.56 454.42 19.61 456.02 19.71 457.58 19.85 459.14 20.02 460.71 20.24 462.25 20.5 463.73 20.79 465.08 21.07 466.36 21.36 467.68 21.66 468.95 21.98 470.21 22.3 471.47 22.64 472.72 22.98 491.63 28.52 481.81 46.55 481 48.08 480.22 49.6 479.47 51.11 478.74 52.62 478.04 54.12 477.36 55.62 476.7 57.1 476.08 58.57 475.48 60.06 474.9 61.53 474.35 62.99 473.83 64.45 473.33 65.91 472.84 67.36 472.39 68.79 471.98 70.19 471.59 71.58 471.23 72.96 470.89 74.33 470.68 75.27 472.34 73.55 474.12 71.77 475.93 70.01 477.75 68.29 479.6 66.61 481.48 64.95 483.38 63.32 485.31 61.72 487.26 60.16 489.24 58.62 491.23 57.12 493.25 55.64 495.3 54.2 497.38 52.78 499.47 51.41 501.58 50.06 503.72 48.74 505.86 47.47 508 46.25 510.16 45.06 512.34 43.91 514.53 42.81 516.72 41.75 518.91 40.73 521.13 39.76 523.37 38.81 525.6 37.92 527.84 37.08 530.09 36.26 532.37 35.5 534.63 34.78 536.91 34.1 539.22 33.46 541.52 32.87 543.81 32.33 546.13 31.82 548.47 31.36 550.8 30.94 553.13 30.57 555.48 30.24 557.83 29.96 560.21 29.71 562.58 29.52 564.94 29.36 567.32 29.25 569.72 29.19 572.14 29.17 574.21 29.2 576.31 29.29 578.4 29.46 580.45 29.69 582.49 29.99 584.52 30.36 586.51 30.81 588.49 31.34 590.46 31.95 592.43 32.66 594.37 33.48 596.26 34.4 598.1 35.41 599.89 36.55 601.63 37.8 615.51 49.11 602.46 62.9 600.75 64.8 599.07 66.72 597.46 68.66 595.89 70.62 594.38 72.6 592.92 74.6 591.51 76.62 590.16 78.66 588.85 80.73 587.59 82.82 586.38 84.94 585.23 87.07 584.12 89.23 583.06 91.41 582.05 93.61 581.1 95.82 580.22 98.01 579.4 100.19 578.64 102.36 577.95 104.51 577.32 106.65 576.76 108.79 576.25 110.91 575.81 113.02 575.42 115.13 575.1 117.22 574.84 119.3 574.63 121.37 574.49 123.45 574.4 125.51 574.37 127.63 574.38 128.92 574.39 130.38 574.42 131.95 574.46 133.59 574.51 135.32 574.58 137.15 574.65 139.07 574.74 141.07 574.84 143.15 574.96 145.33 575.08 147.6 575.21 149.95 575.37 152.38 575.53 154.91 575.7 157.52 575.88 160.22 576.07 162.96 576.25 165.65 576.42 168.25 576.57 170.78 576.71 173.21 576.84 175.58 576.96 177.86 577.07 180.06 577.16 182.19 577.24 184.24 577.31 186.22 577.37 188.12 577.41 189.94 577.44 191.69 577.46 193.37 577.47 194.99 577.45 197.45 577.4 199.93 577.32 202.41 577.21 204.88 577.06 207.34 576.88 209.81 576.66 212.27 576.41 214.72 576.13 217.16 575.82 219.6 575.47 222.03 575.09 224.46 574.68 226.88 574.23 229.3 573.75 231.71 573.24 234.11 572.7 236.5 572.12 238.9 571.5 241.28 570.86 243.65 570.19 246.01 569.48 248.38 568.73 250.75 567.96 253.09 567.15 255.42 566.31 257.76 565.44 260.09 564.53 262.4 563.6 264.71 562.63 267.02 561.63 269.31 560.59 271.6 559.53 273.87 558.44 276.12 557.33 278.36 556.18 280.58 555.01 282.78 553.82 284.95 552.6 287.11 551.35 289.25 550.07 291.37 548.77 293.48 547.44 295.56 546.08 297.62 544.7 299.67 543.29 301.7 541.85 303.7 540.39 305.68 538.9 307.65 537.39 309.59 535.85 311.51 534.29 313.42 532.7 315.31 531.07 317.17 529.43 319.01 527.76 320.84 526.07 322.65 525.84 322.88 526.09 323.14 527.58 324.74 529.03 326.38 530.44 328.05 531.8 329.75 533.11 331.47 534.38 333.23 535.6 335.01 536.75 336.82 537.86 338.64 538.92 340.51 539.92 342.38 540.85 344.28 541.72 346.18 542.52 348.12 543.26 350.08 543.92 352.05 544.51 354.02 545.03 356.03 545.47 358.06 545.84 360.09 546.12 362.12 546.33 364.18 546.45 366.23 546.49 368.48 546.4 370.58 546.13 372.77 545.76 374.88 545.29 376.98 544.74 379.11 544.1 381.33 543.38 383.65 536.21 405.02 518.66 392.17 517.3 391.2 516.03 390.33 514.82 389.53 513.7 388.82 512.68 388.2 511.76 387.68 510.93 387.23 510.21 386.88 509.64 386.62 509.28 386.47 508.91 386.49 508.24 386.54 507.55 386.62 506.84 386.73 506.09 386.86 505.31 387.02 504.5 387.21 503.65 387.44 502.78 387.69 501.89 387.98 500.94 388.3 499.98 388.66 498.99 389.06 497.97 389.48 496.94 389.94 495.91 390.43 494.9 390.93 493.87 391.48 492.82 392.06 491.79 392.67 490.73 393.32 489.66 394 488.58 394.73 487.49 395.49 486.4 396.29 485.3 397.12 484.18 398 483.07 398.91 481.93 399.86 480.8 400.85 479.45 402.06 477.66 403.6 475.86 405.1 474.03 406.55 472.17 407.96 470.31 409.32 468.4 410.65 466.49 411.92 464.54 413.16 462.57 414.35 460.59 415.49 458.59 416.58 456.56 417.63 454.5 418.64 452.43 419.6 450.33 420.51 448.23 421.37 446.12 422.19 444 422.94 441.89 423.65 439.77 424.31 437.64 424.92 435.52 425.48 433.4 425.99 431.25 426.45 429.11 426.84 426.97 427.19 424.83 427.49 422.68 427.74 420.53 427.92 418.39 428.06 416.24 428.14 414.15 428.17 412.49 428.16 410.93 428.14 409.42 428.1 407.89 428.06 406.38 427.99 404.92 427.92 403.48 427.83 402.02 427.72 400.6 427.6 399.21 427.46 397.85 427.31 396.49 427.14 395.14 426.96 393.83 426.76 392.55 426.54 391.19 426.3 388.73 425.78 386.29 425.19 383.91 424.52 381.57 423.77 379.29 422.92 378.31 422.51 376.83 422.93 375.01 423.53 373.26 424.18 371.57 424.89 369.94 425.65 368.36 426.48 366.83 427.35 365.35 428.29 363.93 429.27 362.53 430.33 361.18 431.45 359.87 432.63 358.6 433.89 357.35 435.21 356.18 436.57 355.1 437.93 354.11 439.29 353.2 440.66 352.39 442.02 351.65 443.4 350.99 444.77 350.41 446.14 349.89 447.55 349.45 448.96 349.08 450.4 348.77 451.88 348.53 453.38 348.35 454.94 348.24 456.52 348.2 458.34 348.2 460.81 348.18 463.44 348.15 466.05 348.12 468.64 348.07 471.2 348 473.75 347.93 476.27 347.85 478.76 347.75 481.23 347.64 483.68 347.53 486.1 347.39 488.5 347.26 490.87 347.11 493.23 346.94 495.57 346.76 497.86 346.58 500.14 346.38 502.41 346.17 504.64 345.95 506.85 345.71 509.04 345.47 511.21 345.21 513.36 344.94 515.48 344.66 517.58 344.37 519.66 344.06 521.72 343.74 523.75 343.42 525.75 343.07 527.74 342.72 529.71 342.34 531.68 341.59 535.45 340.77 539.15 339.9 542.74 338.99 546.23 338.02 549.6 337.01 552.85 342.44 552.29 344.87 552.41 346.95 552.73 349.04 553.27 351.01 554.03 352.9 554.98 354.66 556.13 356.23 557.38 357.62 558.7 358.91 560.14 360.12 561.78 361.2 563.57 362.1 565.49 362.81 567.49 363.32 569.57 363.62 571.65 363.71 573.78 363.55 576.73 363.01 579.76 362.11 582.7 360.87 585.48 359.35 588.05 357.61 590.37 355.7 592.44 353.64 594.29 351.47 595.94 349.16 597.41 346.73 598.66 344.17 599.71 341.55 600.5 338.91 601.06 336.23 601.39 333.83 601.48 311.3 601.48 308.81 601.29 305.95 600.67 303.33 599.72 300.94 598.55 298.79 597.21 296.84 595.75 295.04 594.19 293.35 592.54 291.74 590.79 290.24 588.97 289.35 587.77 287.56 589.21 285.68 590.61 283.75 591.95 281.78 593.23 279.75 594.44 277.69 595.57 275.59 596.65 273.45 597.64 271.28 598.58 269.06 599.44 266.81 600.24 264.54 600.96 262.22 601.63 259.87 602.22 257.5 602.75 255.1 603.21 252.67 603.61 250.21 603.94 247.72 604.22 245.21 604.42 242.66 604.58 240.09 604.66 237.53 604.69 235.49 604.68 233.53 604.65 231.61 604.59 229.7 604.52 227.84 604.41 226.01 604.29 224.22 604.14 222.45 603.98 220.69 603.77 218.99 603.55 217.31 603.31 215.64 603.03 214.02 602.72 212.43 602.39 210.86 602.03 209.18 601.61 206.16 600.7 203.14 599.57 200.16 598.14 197.14 596.23 194.14 593.62 191.35 590.02 189.33 585.36 188.67 580.62 188.98 576.35 189.78 572.68 191.09 569.19 192.84 565.98 194.92 563.11 197.25 560.59 199.76 558.38 202.31 556.5 203.87 555.49 205.33 554.64 206.82 553.84 208.35 553.11 209.91 552.44 211.51 551.84 213.1 551.3 214.72 550.83 216.36 550.41 218.02 550.06 219.69 549.76 221.38 549.52 223.06 549.34 224.76 549.22 226.48 549.14 228.24 549.12 230.02 549.15 231.92 549.25 233.92 549.39 236.03 549.6 238.27 549.84 240.65 550.14 243.18 550.49 245.79 550.88 248.26 551.24 250.48 551.54 252.51 551.8 254.31 552 255.9 552.15 257.25 552.25 258.36 552.31 259.33 552.33 264.2 552.33 264.86 551.33 265.95 549.58 267.01 547.78 268.04 545.94 269.03 544.06 270 542.11 270.94 540.12 271.84 538.09 272.71 536 273.55 533.86 274.36 531.66 275.13 529.42 275.87 527.12 276.58 524.78 277.23 522.44 277.84 520.08 278.41 517.68 278.93 515.26 279.4 512.82 279.84 510.36 280.23 507.87 280.57 505.35 280.87 502.81 281.12 500.25 281.32 497.66 281.49 495.04 281.6 492.4 281.67 489.73 281.69 487.04 281.67 484.61 281.6 482.24 281.49 479.91 281.33 477.62 281.13 475.38 280.89 473.19 280.61 471.04 280.27 468.93 279.9 466.87 279.49 464.85 279.04 462.88 278.55 460.94 278.02 459.05 277.45 457.21 276.84 455.42 276.19 453.64 275.51 451.93 274.81 450.31 274.09 448.78 273.35 447.31 272.59 445.93 271.81 444.62 271.02 443.38 270.21 442.21 269.39 441.11 268.55 440.08 267.7 439.11 266.83 438.2 265.95 437.36 265.06 436.56 264.15 435.82 263.55 435.38 260.62 433.64 257.28 431.64 254.15 429.76 251.23 428 248.53 426.36 246.02 424.83 243.73 423.43 241.63 422.13 239.73 420.94 239.3 420.67 238.38 421.03 236.41 421.72 234.44 422.33 232.43 422.89 230.41 423.38 228.37 423.8 226.31 424.16 224.23 424.45 222.14 424.67 220.04 424.83 217.93 424.92 215.84 424.96 213.72 424.94 211.63 424.87 209.56 424.76 207.46 424.61 205.38 424.4 203.31 424.17 201.24 423.88 199.15 423.55 197.08 423.18 195.01 422.76 192.95 422.3 190.9 421.81 188.83 421.26 186.79 420.68 184.75 420.06 182.68 419.38 180.62 418.66 178.59 417.9 176.56 417.1 174.53 416.25 172.53 415.36 170.54 414.43 168.57 413.46 166.6 412.44 164.64 411.38 162.72 410.28 160.81 409.15 158.89 407.97 157 406.75 155.13 405.49 153.28 404.2 151.55 402.94 150.33 402.06 149.18 401.26 148.04 400.48 146.9 399.73 145.77 399.01 144.66 398.33 143.54 397.66 142.41 397.01 141.29 396.39 140.18 395.8 139.09 395.25 137.99 394.71 136.9 394.19 135.83 393.71 134.75 393.25 133.66 392.81 132.58 392.39 131.54 392.01 130.54 391.67 129.54 391.35 128.58 391.06 127.65 390.8 126.74 390.57 125.84 390.37 124.98 390.19 124.16 390.04 123.36 389.92 122.59 389.82 121.84 389.75 121.13 389.69 120.44 389.66 119.81 389.65 119.11 389.67 118.49 389.71 117.87 389.77 117.26 389.86 116.65 389.97 116.06 390.11 115.47 390.28 114.86 390.47 114.26 390.69 113.65 390.94 113.04 391.23 112.42 391.54 111.78 391.9 111.13 392.3 110.48 392.73 95.4 403.51 87.61 386.88 87.25 386.09 86.9 385.3 86.54 384.48 86.19 383.63 85.87 382.81 85.57 382.02 85.23 381.12 84.86 380.05 84.53 378.97 84.22 377.84 83.95 376.65 83.73 375.45 83.56 374.2 83.45 372.89 83.4 371.56 83.46 369.19 83.64 366.89 83.93 364.62 84.32 362.37 84.83 360.12 85.44 357.9 86.14 355.71 86.95 353.54 87.85 351.4 88.83 349.3 89.91 347.21 91.06 345.17 92.3 343.14 93.61 341.14 95 339.17 96.46 337.21 98 335.29 99.58 333.4 101.25 331.53 102.96 329.71 104.73 327.92 106.56 326.17 107.49 325.32 106.31 324.49 104.11 322.83 101.94 321.11 99.79 319.3 97.69 317.45 95.64 315.54 93.61 313.56 91.61 311.5 89.66 309.41 87.75 307.25 85.87 305.02 84.03 302.74 82.22 300.41 80.45 298.01 78.72 295.56 77.01 293.04 75.35 290.48 73.73 287.86 72.12 285.18 70.56 282.43 69.03 279.65 67.54 276.81 66.08 273.91 64.65 270.95 63.27 267.97 61.94 264.97 60.66 261.94 59.42 258.88 58.22 255.79 57.08 252.68 55.97 249.53 54.91 246.35 53.91 243.15 52.95 239.93 52.02 236.68 51.15 233.4 50.32 230.09 49.54 226.76 48.81 223.4 48.12 220 47.47 216.59 46.87 213.15 46.31 209.68 45.8 206.19 45.34 202.67 44.92 199.13 44.54 195.56 44.21 191.96 43.92 188.34 43.68 184.69 43.48 181.02 43.33 177.32 43.22 173.6 43.15 169.86 43.13 166.15 43.12 164.08 43.1 162.12 43.05 160.15 42.99 158.19 42.91 156.23 42.82 154.31 42.7 152.38 42.57 150.45 42.43 148.54 42.26 146.65 42.08 144.76 41.88 142.88 41.66 141.01 41.43 139.16 41.17 137.31 40.9 135.46 40.62 133.61 40.31 131.79 40 129.99 39.66 128.19 39.3 126.39 38.93 124.61 38.54 122.83 38.14 121.07 37.71 119.29 37.27 117.54 36.82 115.81 36.34 114.08 35.85 112.35 35.34 110.64 34.82 108.95 34.29 107.29 33.14 103.86 31.95 100.55 30.7 97.31 29.39 94.11 28.03 90.96 26.61 87.88 25.13 84.86 23.59 81.88 22 78.95 20.35 76.09 18.66 73.28 16.89 70.52 15.07 67.8 13.19 65.15 11.25 62.55 0 48.16 12.79 37.78 14.52 36.54 16.31 35.42 18.14 34.4 20.04 33.48 21.98 32.66 23.94 31.95 25.92 31.34 27.9 30.81 29.89 30.36 31.92 29.99 33.95 29.69 36.01 29.46 38.1 29.29 40.2 29.2 42.26 29.17 44.61 29.19 46.91 29.25 49.22 29.35 51.52 29.5 53.81 29.68 56.11 29.9 58.4 30.17 60.67 30.48 62.95 30.82 65.23 31.21 67.51 31.64 69.76 32.11 72.03 32.62 74.29 33.17 76.54 33.76 78.78 34.39 81.01 35.06 83.25 35.77 85.48 36.52 87.69 37.31 89.91 38.13 92.12 39.01 94.33 39.92 96.52 40.86 98.7 41.84 100.89 42.87 103.07 43.94 105.23 45.04 107.39 46.17 109.55 47.35 111.7 48.57 113.83 49.82 115.96 51.1 118.07 52.42 120.18 53.78 122.26 55.17 124.31 56.58 126.34 58.03 128.36 59.51 130.35 61.02 132.33 62.56 134.29 64.13 136.23 65.74 138.14 67.37 139.41 68.49 139.37 68.41 138.45 66.83 137.49 65.23 136.48 63.62 135.44 61.99 134.36 60.36 133.23 58.72 132.06 57.06 130.86 55.4 129.6 53.73 129.6 53.73"/><path class="cls-2" d="M429.74,770.74q-14.88,0-24.48-2.56t-9.6-7.06q0-6.42,7.12-11.24t17.66-4.81a114.5,114.5,0,0,1,15.49,1.6,115.23,115.23,0,0,0,15.49,1.61h12.4q11.78-14.76,18.28-35.63A149.3,149.3,0,0,0,488.6,668q0-21.82-6.5-38.84t-18.28-25.35q-29.13-17.34-31-19.26a47.32,47.32,0,0,1-11.78,4.81,51.7,51.7,0,0,1-13,1.61,88.57,88.57,0,0,1-28.5-4.82,98.85,98.85,0,0,1-27.27-14.44,95.42,95.42,0,0,0-21.06-11.87Q320.67,555.7,312,555.7a29.24,29.24,0,0,0-9.61,1.61,33.36,33.36,0,0,0-9,4.81,53.5,53.5,0,0,1-2.17-5.13,13.52,13.52,0,0,1-.93-4.49q0-12.21,9.91-25t27.27-23.11q-34.71-12.84-56.08-56.17T250,347.08a204.4,204.4,0,0,0-9.6-63.55,163.36,163.36,0,0,0-27.58-52,24.29,24.29,0,0,1,9.3-4.82,44.76,44.76,0,0,1,12.39-1.6q32.85,0,64.13,18.61t53.6,52q3.11-12.19,3.1-19.26,0-11.55-6.5-25.67a142.36,142.36,0,0,0-18.29-28.89,34.14,34.14,0,0,1,5.58-2.25,23,23,0,0,1,6.82-1q31.59,0,61.65,20.54t49.88,56.49q16.11-36,52.67-89.87,19.83,24.39,43.37,77,18.6-27.6,42.76-45.26t50.19-22.14a47.46,47.46,0,0,1,9.61,1c3.09.64,6.09,1.39,9,2.25a139.91,139.91,0,0,0-11.46,26.64,84.46,84.46,0,0,0-4,24.71q0,16.69,3.1,28.89,19.2-34,49.88-53.92t64.75-19.9a44.7,44.7,0,0,1,12.39,1.6,24.29,24.29,0,0,1,9.3,4.82,127.35,127.35,0,0,0-25.1,36.91q-9,20.22-9,40.12,0,11.55,1.55,33.7T755,376a166.55,166.55,0,0,1-15.48,70.29,171.58,171.58,0,0,1-43.38,58.09,79.32,79.32,0,0,1,20.45,21.51q7.43,11.86,7.43,23.42,0,3.86-3.09,12.84-13-9.63-18.59-9.62-8.68,0-19.21,4.81a82.4,82.4,0,0,0-21.07,14.44,91.71,91.71,0,0,1-27,16.69,77.79,77.79,0,0,1-28.82,5.78,107.63,107.63,0,0,1-20.13-1.61,44.94,44.94,0,0,1-14-4.81q-20.44,3.86-33.46,18.3t-13,33q0,41.73-5.58,70.61t-16.11,41.73l31-3.21a5.84,5.84,0,0,1,4.33,1.92,6.28,6.28,0,0,1,1.86,4.5q0,5.13-4.65,9a16.46,16.46,0,0,1-10.84,3.85H504.09q-3.72,0-8-4.49a39.14,39.14,0,0,1-7.44-11.55q10.53-10.92,16.11-38.52t5.58-67.4q0-2.57-2.79-4.49a11.13,11.13,0,0,0-6.5-1.93v22.47q0,56.49-17.36,82.81t-53.9,26.31Z" transform="translate(-192.24 -181)"/><path class="cls-3" d="M646.61,507.56q33.46,0,61.65-40.44t28.2-87.94q0-11.56-1.55-33.7t-1.55-33.7a104.35,104.35,0,0,1,7.12-38.2,96.77,96.77,0,0,1,20.76-32.41q-31.61,0-60.1,21.82T655.9,321.41q12.4,48.13,12.4,83.45,0,30.81-10.54,56.8T628,504.35c2.89.86,5.89,1.61,9,2.25a47.46,47.46,0,0,0,9.61,1Z" transform="translate(-192.24 -181)"/><path class="cls-3" d="M566.06,517.19q36.56-3.21,61.65-32.74t25.1-70q0-47.5-9.3-73.82-12.39-48.14-12.39-64.19a81.82,81.82,0,0,1,2.48-20.54,84.33,84.33,0,0,1,6.81-18q-22.92,1.92-44.3,18.29t-36.25,42.69a311.86,311.86,0,0,1,27.57,67.72A264.11,264.11,0,0,1,597,437q0,16.69-8.06,37.23t-22.92,43Z" transform="translate(-192.24 -181)"/><path class="cls-3" d="M361.58,494.72a53.17,53.17,0,0,0,18.59-3.21Q361,471.62,350.43,438.88t-10.54-72.54q0-18,6.2-54.56-21.69-31.45-50.2-49.43t-58.24-18q14.86,18.62,22.92,50.71t8.06,74.46q0,46.21,29.12,85.7t63.83,39.47Z" transform="translate(-192.24 -181)"/><path class="cls-3" d="M442.13,510.77Q428.5,494.08,421.37,471a169.16,169.16,0,0,1-7.12-50.07q0-21.82,7.12-48.46A396.11,396.11,0,0,1,442.13,315q-19.22-34-41.83-55.21t-44.92-25q7.44,7.69,11.46,20.22a90.68,90.68,0,0,1,4,27.92q0,14.76-6.19,38.52-6.19,17.32-6.2,54.56,0,49.42,23.24,87t60.41,47.82Z" transform="translate(-192.24 -181)"/><path class="cls-3" d="M507.19,523.61q29.74,0,50.5-26.32t20.76-63.55q0-44.3-18.28-94.36T507.19,238q-37.8,55.85-57.62,105.27t-19.83,87.3q0,38.52,22.61,65.8t54.84,27.28Z" transform="translate(-192.24 -181)"/><path class="cls-4" d="M609.43,578.17a54.53,54.53,0,0,0,21.69-4.81,78.67,78.67,0,0,0,21.69-14.45,95.41,95.41,0,0,1,26-16q13-5.14,23.55-3.21a39.39,39.39,0,0,0-10.54-16.37q-6.81-6.1-14.25-6.1-34.7,9.63-43.37,9.63-19.22,0-27.89-3.21a51.7,51.7,0,0,0-13,1.6A47.13,47.13,0,0,0,581.55,530a26.93,26.93,0,0,1,4.65,8.66,34.52,34.52,0,0,1,1.54,10.59,63.46,63.46,0,0,1-1.54,14.77A32.66,32.66,0,0,1,581.55,575a78.81,78.81,0,0,0,11.15,2.25,122.79,122.79,0,0,0,16.73,1Z" transform="translate(-192.24 -181)"/><path class="cls-4" d="M408.05,575a53.17,53.17,0,0,0,18.59-3.21q-3.11-9-3.1-25.67,0-3.21,3.1-9a91.35,91.35,0,0,1,9.29-13.48q-19.2-3.86-40.27-16.05a109,109,0,0,1-17,4.82,90.27,90.27,0,0,1-17,1.6q1.86,0-15.49-3.21-14.25,7.07-22.93,15.4T312,542.87q9.92-3.86,23.23.31t26.34,15.73a85.15,85.15,0,0,0,22.61,11.88A72.84,72.84,0,0,0,408.05,575Z" transform="translate(-192.24 -181)"/><path class="cls-4" d="M507.19,619.89q3.72,0,8.06-4.49a38.8,38.8,0,0,0,7.43-11.55q1.86-5.77,8.37-11.88a60.08,60.08,0,0,1,16.42-10.59,36,36,0,0,0,18-11.23,26.69,26.69,0,0,0,6.81-17.65,27.75,27.75,0,0,0-3.41-13.81,19.71,19.71,0,0,0-9-8.66q-25.41,9.63-49.57,9.63-30.36,0-55.77-9.63-5.58,2.57-9,9.63a36.44,36.44,0,0,0-3.41,16,26.59,26.59,0,0,0,4,13.81,38.47,38.47,0,0,0,11.46,11.87q24.78,14.76,31,25.68a26.65,26.65,0,0,0,8.06,9.3,17.77,17.77,0,0,0,10.53,3.53Z" transform="translate(-192.24 -181)"/><path class="cls-1" d="M435.93,761.12a10.06,10.06,0,0,0,6.51-2.25,6.79,6.79,0,0,0,2.79-5.46,13.83,13.83,0,0,1-5.27,1.93,38.25,38.25,0,0,1-7.12.64H414.25c-1.66,0-2.48.86-2.48,2.57s.82,2.57,2.48,2.57Z" transform="translate(-192.24 -181)"/><path class="cls-1" d="M482.39,778.68v-.11l.34-1.76.55-1.68.76-1.6.93-1.48,1.07-1.33,1.19-1.22,1.3-1.09,1.37-1,1.44-.86,1.51-.73,1.55-.59,1.61-.46,1.65-.33,1.66-.19,1.56,0H529l1.22,0,1.32.14,1.3.23,1.28.32,1.25.43,1.23.53,1.18.62,1.12.71L540,768l1,.93,1,1.06.85,1.2.72,1.33.55,1.49.33,1.55.11,1.71-.27,2.45-.86,2.45-1.32,2.11-.79.86h0l2-.24,2.06-.14,1.89,0,4.83-.22-.87-.39-2.74-2.47L547.29,778l.17-2.66.34-1.76.55-1.7.76-1.6.93-1.48,1.07-1.32,1.19-1.22.67-.56-.17-.07-1.35-.63-1.28-.73-1.22-.83-1.16-1-1.11-1.15-1-1.39-.79-1.59-.51-1.78-.18-1.91.24-2.42.72-2.32,1.14-2.09,1.45-1.78,1.66-1.47,1.79-1.22,1.93-1,2-.84,1.13-.4,1.08-.35,1.11-.32,1.14-.3,1.16-.26,1.19-.24,1.22-.22,1.23-.19,1.27-.17,1.29-.14,1.33-.12,1.36-.1,1.37-.08,1.41,0,1.44,0h1.5l2.31,0,2.27.14,2.17.23,2.09.34,2,.43,1.94.56L590,741l1.77.82,1.69,1,1.58,1.16,1.46,1.35,1.28,1.57,1.06,1.78.78,2,.46,2,.14,2-.08,1.54-.24,1.49-.42,1.49-.63,1.44-.56.93.83.22,1.25.42,1.23.52,1.18.63L604,764l1.07.8,1,.93,1,1.06.84,1.19.73,1.34.54,1.49.33,1.55.1,1.49-.06,1.33-.18,1.26-.31,1.26-.43,1.21-.54,1.14-.65,1.08-.73,1-.81.91-.89.84-1,.76-1,.67-1.12.57-1.17.44-1.19.32-1.22.18-1.07.06h-8.93l1.09.74,1.17,1,1.09,1.16,1,1.38.78,1.61.51,1.79.18,2-.35,2.73-1.1,2.61L591,804l-1.86,1.66-2,1.32L585,808.09l-2.35.91-2.52.78-1.39.36-1.37.32-1.41.3-1.46.28-1.51.25-1.54.23-1.58.2-1.63.18-1.67.16-1.7.14-1.76.11-1.8.1-1.84.07-1.89,0-1.92,0h-3.42l-1.4,0-1.36,0-1.35,0-1.32-.06-1.27-.07-1.25-.09-1.23-.1-1.2-.11-1.15-.13-1.13-.15-1.11-.15-1.08-.18-1-.19-1-.2-1.07-.24-1.93-.52-1.85-.64-1.76-.79-1.71-1-1.63-1.38-.13-.17-.94.8-1.87,1.15-2,.9-2.11.74-2.22.6-1.2.28-1.16.24-1.19.22-1.21.21-1.24.18-1.26.17-1.29.16-1.32.14-1.34.12-1.36.1-1.38.09-1.42.07-1.45.06-1.46,0-1.49,0h-1.55l-2.24,0-2.16-.08-2.07-.14-2-.19-1.89-.27-1.79-.32-1.72-.39-1.68-.49-1.62-.6-1.57-.74-1.52-.94-1.45-1.19-1.3-1.52-1.05-1.81-.66-2.08-.21-2.06.12-1.68.33-1.55.55-1.47.24-.45-1.26.49-1.76.54-1.8.4-1.83.29-1.86.17-1.75.06h-.95l-1,0-1.07.07-1.2.09-1.28.13.46.5,1,1.52.7,1.87.23,2-.24,2.5-.72,2.33-1.14,2.09-1.45,1.78-1.65,1.46-1.8,1.22-1.92,1-2,.85-1.12.4-1.08.35-1.11.31-1.13.3-1.17.27-1.18.23-1.21.22-1.26.2-1.26.16-1.29.14-1.32.12-1.35.11-1.39.07-1.41.05-1.43,0h-2.93l-1.43,0-1.38-.05-1.37-.06-1.35-.09-1.31-.1-1.27-.13-1.26-.14-1.22-.17L413.4,818l-1.17-.21-1.15-.23-1.12-.26-1.09-.27-1.06-.3-1.1-.34-2-.73-1.88-.87-1.77-1-1.67-1.28-1.52-1.61-1.26-2-.83-2.31-.29-2.49.25-2.17.71-2,1-1.68,1.2-1.34,1.28-1.09,1.34-.88,1.38-.75,1.46-.66,1.52-.58-.37-.1-.88-.32-.87-.45-.77-.5-.68-.54-.67-.61-.61-.71-.53-.71-.48-.79-.43-.91-.32-.91-.23-.93-.14-1-.06-1.17.23-2,.7-2,1-1.67,1.19-1.34,1.29-1.09,1.33-.88,1.39-.75,1.47-.66,1.52-.58,1.56-.5,1.6-.41,1.63-.33,1.66-.26,1.71-.18,1.74-.1,1.82,0,1,0,1.08.11,1.12.16,1.13.22,1.18.26,1.25.32,1.31.36,1.32.39,1.22.35,1.07.3,1,.24.83.19.71.13.58.09.42,0H436l1.05,0,1.27-.12,1.46-.21,1.63-.3,1.81-.41,2-.51,2.13-.61,2.34-.73,2.48-.77,2.42-.7,2.31-.59,2.21-.5,2.1-.39,2-.29,1.93-.18,1.84-.07,1.33.05,1.31.13,1.3.23,1.28.32,1.26.43,1.23.53,1.19.62,1.11.72,1.08.8,1,.93,1,1.06.85,1.2.72,1.34.54,1.48.3,1.42Zm-2,8.69,1.14-.29,1.31-.22,1.31-.14.7,0-1.21-1.48L482.63,783l-.2-1.29-.05.64-.46,1.95-.74,1.82-.75,1.25Z" transform="translate(-192.24 -181)"/><path class="cls-2" d="M439,791.93q-4.95,0-15.49-2.57t-15.49-2.57a2.92,2.92,0,0,1-2.17-1,3.13,3.13,0,0,1-.93-2.25q0-2.57,4.65-4.49a28.24,28.24,0,0,1,10.84-1.93,30.17,30.17,0,0,1,7.75,1.61,30,30,0,0,0,7.74,1.6q5.58,0,15.49-3.21t15.5-3.2a11.19,11.19,0,0,1,6.5,1.92q2.79,1.92,2.79,4.49,0,3.86-4.65,6.74A20,20,0,0,1,460.72,790a88.35,88.35,0,0,0-10.85,1,86.53,86.53,0,0,1-10.84,1Zm-12.39,20.54q-11.16,0-18-2.25t-6.82-6.1c0-1.71,1.55-3.2,4.65-4.49a28.24,28.24,0,0,1,10.84-1.93H439a21.75,21.75,0,0,1,8.68,1.61c2.48,1.07,3.71,2.25,3.71,3.53q0,4.5-6.81,7.06t-18,2.57Zm68.16-6.42q-8.69,0-13.63-1.6t-5-4.82q0-2.57,2.79-4.49a11.13,11.13,0,0,1,6.5-1.93,30,30,0,0,0,7.75-1.6,19.43,19.43,0,0,1,15.49,0,30,30,0,0,0,7.75,1.6,6.42,6.42,0,0,1,4.33,1.61,4.63,4.63,0,0,1,1.86,3.53q0,3.85-8,5.77a86.43,86.43,0,0,1-19.83,1.93Zm15.49-19.26a53.1,53.1,0,0,1-15.49-1.92q-6.19-1.93-6.2-4.5,0-3.84,3.72-6.74a13.78,13.78,0,0,1,8.68-2.89h27.88a11.15,11.15,0,0,1,6.5,1.93c1.86,1.29,2.79,2.78,2.79,4.49q0,4.5-7.74,7.06t-20.14,2.57Zm43.37,19.26a81.28,81.28,0,0,1-18-1.6q-6.81-1.61-6.81-4.82t5.58-5.78a30.82,30.82,0,0,1,13-2.56L575.35,790a18.47,18.47,0,0,1,8.67,1.93c2.49,1.28,3.72,2.78,3.72,4.49q0,4.5-9.29,7.06t-24.79,2.57Zm15.49-25.68q-15.48,0-15.49-3.21c0-2.56,1.24-4.81,3.72-6.73a13.72,13.72,0,0,1,8.68-2.9h27.88a11.21,11.21,0,0,1,6.51,1.93q2.79,1.92,2.79,4.5a6.29,6.29,0,0,1-1.86,4.49,5.87,5.87,0,0,1-4.34,1.92ZM563,761.12a18.67,18.67,0,0,1-8.68-1.93c-2.48-1.28-3.71-2.78-3.71-4.49q0-4.5,6.81-7.06t18-2.57q8.68,0,13.63,2.57t5,7.06a5.35,5.35,0,0,1-2.48,4.81,12.43,12.43,0,0,1-6.81,1.61Z" transform="translate(-192.24 -181)"/></svg>